<svg width="353" height="341" viewBox="0 0 353 341" fill="none" xmlns="http://www.w3.org/2000/svg">
<rect x="1" y="181" width="282" height="80" fill="#2C3E50"/>
<rect x="1" y="261" width="282" height="80" fill="#ECF0F1"/>
<path d="M43.4434 204.301C46.7598 204.301 49.1797 205.016 50.7031 206.445C52.2266 207.863 52.9883 209.82 52.9883 212.316C52.9883 213.441 52.8184 214.52 52.4785 215.551C52.1387 216.57 51.582 217.479 50.8086 218.275C50.0469 219.072 49.0273 219.705 47.75 220.174C46.4727 220.631 44.8965 220.859 43.0215 220.859H40.6836V230H35.2344V204.301H43.4434ZM43.1621 208.766H40.6836V216.395H42.4766C43.4961 216.395 44.3809 216.26 45.1309 215.99C45.8809 215.721 46.4609 215.299 46.8711 214.725C47.2812 214.15 47.4863 213.412 47.4863 212.51C47.4863 211.244 47.1348 210.307 46.4316 209.697C45.7285 209.076 44.6387 208.766 43.1621 208.766ZM65.5215 209.979C67.3379 209.979 68.9023 210.33 70.2148 211.033C71.5273 211.725 72.541 212.732 73.2559 214.057C73.9707 215.381 74.3281 216.998 74.3281 218.908V221.51H61.6543C61.7129 223.021 62.1641 224.211 63.0078 225.078C63.8633 225.934 65.0469 226.361 66.5586 226.361C67.8125 226.361 68.9609 226.232 70.0039 225.975C71.0469 225.717 72.1191 225.33 73.2207 224.814V228.963C72.248 229.443 71.2285 229.795 70.1621 230.018C69.1074 230.24 67.8242 230.352 66.3125 230.352C64.3438 230.352 62.5977 229.988 61.0742 229.262C59.5625 228.535 58.373 227.428 57.5059 225.939C56.6504 224.451 56.2227 222.576 56.2227 220.314C56.2227 218.018 56.6094 216.107 57.3828 214.584C58.168 213.049 59.2578 211.9 60.6523 211.139C62.0469 210.365 63.6699 209.979 65.5215 209.979ZM65.5566 213.793C64.5137 213.793 63.6465 214.127 62.9551 214.795C62.2754 215.463 61.8828 216.512 61.7773 217.941H69.3008C69.2891 217.145 69.1426 216.436 68.8613 215.814C68.5918 215.193 68.1816 214.701 67.6309 214.338C67.0918 213.975 66.4004 213.793 65.5566 213.793ZM89.8496 209.979C91.9473 209.979 93.6348 210.553 94.9121 211.701C96.1895 212.838 96.8281 214.666 96.8281 217.186V230H91.4668V218.521C91.4668 217.115 91.209 216.055 90.6934 215.34C90.1895 214.625 89.3926 214.268 88.3027 214.268C86.6621 214.268 85.543 214.824 84.9453 215.938C84.3477 217.051 84.0488 218.656 84.0488 220.754V230H78.6875V210.348H82.7832L83.5039 212.861H83.8027C84.2246 212.182 84.7461 211.631 85.3672 211.209C86 210.787 86.6973 210.477 87.459 210.277C88.2324 210.078 89.0293 209.979 89.8496 209.979ZM113.51 209.979C115.607 209.979 117.295 210.553 118.572 211.701C119.85 212.838 120.488 214.666 120.488 217.186V230H115.127V218.521C115.127 217.115 114.869 216.055 114.354 215.34C113.85 214.625 113.053 214.268 111.963 214.268C110.322 214.268 109.203 214.824 108.605 215.938C108.008 217.051 107.709 218.656 107.709 220.754V230H102.348V210.348H106.443L107.164 212.861H107.463C107.885 212.182 108.406 211.631 109.027 211.209C109.66 210.787 110.357 210.477 111.119 210.277C111.893 210.078 112.689 209.979 113.51 209.979ZM123.195 210.348H129.066L132.775 221.404C132.893 221.756 132.992 222.113 133.074 222.477C133.156 222.84 133.227 223.215 133.285 223.602C133.344 223.988 133.391 224.393 133.426 224.814H133.531C133.602 224.182 133.695 223.59 133.812 223.039C133.941 222.488 134.1 221.943 134.287 221.404L137.926 210.348H143.674L135.359 232.514C134.855 233.873 134.199 235.004 133.391 235.906C132.582 236.82 131.65 237.506 130.596 237.963C129.553 238.42 128.404 238.648 127.15 238.648C126.541 238.648 126.014 238.613 125.568 238.543C125.123 238.484 124.742 238.42 124.426 238.35V234.096C124.672 234.154 124.982 234.207 125.357 234.254C125.732 234.301 126.125 234.324 126.535 234.324C127.285 234.324 127.93 234.166 128.469 233.85C129.008 233.533 129.459 233.105 129.822 232.566C130.186 232.039 130.473 231.459 130.684 230.826L131 229.859L123.195 210.348ZM187.848 204.301L181.309 230H175.104L171.623 216.5C171.553 216.242 171.459 215.85 171.342 215.322C171.225 214.795 171.102 214.221 170.973 213.6C170.844 212.967 170.727 212.375 170.621 211.824C170.527 211.262 170.463 210.816 170.428 210.488C170.393 210.816 170.322 211.256 170.217 211.807C170.123 212.357 170.012 212.943 169.883 213.564C169.766 214.186 169.648 214.766 169.531 215.305C169.414 215.844 169.32 216.254 169.25 216.535L165.787 230H159.6L153.043 204.301H158.404L161.691 218.328C161.785 218.75 161.891 219.254 162.008 219.84C162.137 220.426 162.26 221.041 162.377 221.686C162.506 222.318 162.617 222.934 162.711 223.531C162.816 224.117 162.893 224.627 162.939 225.061C162.998 224.615 163.074 224.1 163.168 223.514C163.262 222.916 163.361 222.312 163.467 221.703C163.584 221.082 163.701 220.508 163.818 219.98C163.936 219.453 164.041 219.025 164.135 218.697L167.879 204.301H173.029L176.773 218.697C176.855 219.014 176.949 219.441 177.055 219.98C177.172 220.508 177.289 221.082 177.406 221.703C177.523 222.324 177.629 222.934 177.723 223.531C177.828 224.117 177.904 224.627 177.951 225.061C178.033 224.475 178.145 223.766 178.285 222.934C178.438 222.09 178.596 221.252 178.76 220.42C178.936 219.588 179.088 218.891 179.217 218.328L182.486 204.301H187.848ZM205.373 210.348V230H200.012V210.348H205.373ZM202.701 202.648C203.498 202.648 204.184 202.836 204.758 203.211C205.332 203.574 205.619 204.26 205.619 205.268C205.619 206.264 205.332 206.955 204.758 207.342C204.184 207.717 203.498 207.904 202.701 207.904C201.893 207.904 201.201 207.717 200.627 207.342C200.064 206.955 199.783 206.264 199.783 205.268C199.783 204.26 200.064 203.574 200.627 203.211C201.201 202.836 201.893 202.648 202.701 202.648ZM224.727 224.164C224.727 225.5 224.41 226.631 223.777 227.557C223.156 228.471 222.225 229.168 220.982 229.648C219.74 230.117 218.193 230.352 216.342 230.352C214.971 230.352 213.793 230.264 212.809 230.088C211.836 229.912 210.852 229.619 209.855 229.209V224.779C210.922 225.26 212.064 225.658 213.283 225.975C214.514 226.279 215.592 226.432 216.518 226.432C217.561 226.432 218.305 226.279 218.75 225.975C219.207 225.658 219.436 225.248 219.436 224.744C219.436 224.416 219.342 224.123 219.154 223.865C218.979 223.596 218.592 223.297 217.994 222.969C217.396 222.629 216.459 222.189 215.182 221.65C213.951 221.135 212.938 220.613 212.141 220.086C211.355 219.559 210.77 218.938 210.383 218.223C210.008 217.496 209.82 216.576 209.82 215.463C209.82 213.646 210.523 212.281 211.93 211.367C213.348 210.441 215.24 209.979 217.607 209.979C218.826 209.979 219.986 210.102 221.088 210.348C222.201 210.594 223.344 210.986 224.516 211.525L222.898 215.393C221.926 214.971 221.006 214.625 220.139 214.355C219.283 214.086 218.41 213.951 217.52 213.951C216.734 213.951 216.143 214.057 215.744 214.268C215.346 214.479 215.146 214.801 215.146 215.234C215.146 215.551 215.246 215.832 215.445 216.078C215.656 216.324 216.055 216.6 216.641 216.904C217.238 217.197 218.111 217.578 219.26 218.047C220.373 218.504 221.34 218.984 222.16 219.488C222.98 219.98 223.613 220.596 224.059 221.334C224.504 222.061 224.727 223.004 224.727 224.164ZM237.014 209.979C238.83 209.979 240.395 210.33 241.707 211.033C243.02 211.725 244.033 212.732 244.748 214.057C245.463 215.381 245.82 216.998 245.82 218.908V221.51H233.146C233.205 223.021 233.656 224.211 234.5 225.078C235.355 225.934 236.539 226.361 238.051 226.361C239.305 226.361 240.453 226.232 241.496 225.975C242.539 225.717 243.611 225.33 244.713 224.814V228.963C243.74 229.443 242.721 229.795 241.654 230.018C240.6 230.24 239.316 230.352 237.805 230.352C235.836 230.352 234.09 229.988 232.566 229.262C231.055 228.535 229.865 227.428 228.998 225.939C228.143 224.451 227.715 222.576 227.715 220.314C227.715 218.018 228.102 216.107 228.875 214.584C229.66 213.049 230.75 211.9 232.145 211.139C233.539 210.365 235.162 209.979 237.014 209.979ZM237.049 213.793C236.006 213.793 235.139 214.127 234.447 214.795C233.768 215.463 233.375 216.512 233.27 217.941H240.793C240.781 217.145 240.635 216.436 240.354 215.814C240.084 215.193 239.674 214.701 239.123 214.338C238.584 213.975 237.893 213.793 237.049 213.793Z" fill="#ECF0F1"/>
<path d="M43.4434 284.301C46.7598 284.301 49.1797 285.016 50.7031 286.445C52.2266 287.863 52.9883 289.82 52.9883 292.316C52.9883 293.441 52.8184 294.52 52.4785 295.551C52.1387 296.57 51.582 297.479 50.8086 298.275C50.0469 299.072 49.0273 299.705 47.75 300.174C46.4727 300.631 44.8965 300.859 43.0215 300.859H40.6836V310H35.2344V284.301H43.4434ZM43.1621 288.766H40.6836V296.395H42.4766C43.4961 296.395 44.3809 296.26 45.1309 295.99C45.8809 295.721 46.4609 295.299 46.8711 294.725C47.2812 294.15 47.4863 293.412 47.4863 292.51C47.4863 291.244 47.1348 290.307 46.4316 289.697C45.7285 289.076 44.6387 288.766 43.1621 288.766ZM65.5215 289.979C67.3379 289.979 68.9023 290.33 70.2148 291.033C71.5273 291.725 72.541 292.732 73.2559 294.057C73.9707 295.381 74.3281 296.998 74.3281 298.908V301.51H61.6543C61.7129 303.021 62.1641 304.211 63.0078 305.078C63.8633 305.934 65.0469 306.361 66.5586 306.361C67.8125 306.361 68.9609 306.232 70.0039 305.975C71.0469 305.717 72.1191 305.33 73.2207 304.814V308.963C72.248 309.443 71.2285 309.795 70.1621 310.018C69.1074 310.24 67.8242 310.352 66.3125 310.352C64.3438 310.352 62.5977 309.988 61.0742 309.262C59.5625 308.535 58.373 307.428 57.5059 305.939C56.6504 304.451 56.2227 302.576 56.2227 300.314C56.2227 298.018 56.6094 296.107 57.3828 294.584C58.168 293.049 59.2578 291.9 60.6523 291.139C62.0469 290.365 63.6699 289.979 65.5215 289.979ZM65.5566 293.793C64.5137 293.793 63.6465 294.127 62.9551 294.795C62.2754 295.463 61.8828 296.512 61.7773 297.941H69.3008C69.2891 297.145 69.1426 296.436 68.8613 295.814C68.5918 295.193 68.1816 294.701 67.6309 294.338C67.0918 293.975 66.4004 293.793 65.5566 293.793ZM89.8496 289.979C91.9473 289.979 93.6348 290.553 94.9121 291.701C96.1895 292.838 96.8281 294.666 96.8281 297.186V310H91.4668V298.521C91.4668 297.115 91.209 296.055 90.6934 295.34C90.1895 294.625 89.3926 294.268 88.3027 294.268C86.6621 294.268 85.543 294.824 84.9453 295.938C84.3477 297.051 84.0488 298.656 84.0488 300.754V310H78.6875V290.348H82.7832L83.5039 292.861H83.8027C84.2246 292.182 84.7461 291.631 85.3672 291.209C86 290.787 86.6973 290.477 87.459 290.277C88.2324 290.078 89.0293 289.979 89.8496 289.979ZM113.51 289.979C115.607 289.979 117.295 290.553 118.572 291.701C119.85 292.838 120.488 294.666 120.488 297.186V310H115.127V298.521C115.127 297.115 114.869 296.055 114.354 295.34C113.85 294.625 113.053 294.268 111.963 294.268C110.322 294.268 109.203 294.824 108.605 295.938C108.008 297.051 107.709 298.656 107.709 300.754V310H102.348V290.348H106.443L107.164 292.861H107.463C107.885 292.182 108.406 291.631 109.027 291.209C109.66 290.787 110.357 290.477 111.119 290.277C111.893 290.078 112.689 289.979 113.51 289.979ZM123.195 290.348H129.066L132.775 301.404C132.893 301.756 132.992 302.113 133.074 302.477C133.156 302.84 133.227 303.215 133.285 303.602C133.344 303.988 133.391 304.393 133.426 304.814H133.531C133.602 304.182 133.695 303.59 133.812 303.039C133.941 302.488 134.1 301.943 134.287 301.404L137.926 290.348H143.674L135.359 312.514C134.855 313.873 134.199 315.004 133.391 315.906C132.582 316.82 131.65 317.506 130.596 317.963C129.553 318.42 128.404 318.648 127.15 318.648C126.541 318.648 126.014 318.613 125.568 318.543C125.123 318.484 124.742 318.42 124.426 318.35V314.096C124.672 314.154 124.982 314.207 125.357 314.254C125.732 314.301 126.125 314.324 126.535 314.324C127.285 314.324 127.93 314.166 128.469 313.85C129.008 313.533 129.459 313.105 129.822 312.566C130.186 312.039 130.473 311.459 130.684 310.826L131 309.859L123.195 290.348ZM187.848 284.301L181.309 310H175.104L171.623 296.5C171.553 296.242 171.459 295.85 171.342 295.322C171.225 294.795 171.102 294.221 170.973 293.6C170.844 292.967 170.727 292.375 170.621 291.824C170.527 291.262 170.463 290.816 170.428 290.488C170.393 290.816 170.322 291.256 170.217 291.807C170.123 292.357 170.012 292.943 169.883 293.564C169.766 294.186 169.648 294.766 169.531 295.305C169.414 295.844 169.32 296.254 169.25 296.535L165.787 310H159.6L153.043 284.301H158.404L161.691 298.328C161.785 298.75 161.891 299.254 162.008 299.84C162.137 300.426 162.26 301.041 162.377 301.686C162.506 302.318 162.617 302.934 162.711 303.531C162.816 304.117 162.893 304.627 162.939 305.061C162.998 304.615 163.074 304.1 163.168 303.514C163.262 302.916 163.361 302.312 163.467 301.703C163.584 301.082 163.701 300.508 163.818 299.98C163.936 299.453 164.041 299.025 164.135 298.697L167.879 284.301H173.029L176.773 298.697C176.855 299.014 176.949 299.441 177.055 299.98C177.172 300.508 177.289 301.082 177.406 301.703C177.523 302.324 177.629 302.934 177.723 303.531C177.828 304.117 177.904 304.627 177.951 305.061C178.033 304.475 178.145 303.766 178.285 302.934C178.438 302.09 178.596 301.252 178.76 300.42C178.936 299.588 179.088 298.891 179.217 298.328L182.486 284.301H187.848ZM205.373 290.348V310H200.012V290.348H205.373ZM202.701 282.648C203.498 282.648 204.184 282.836 204.758 283.211C205.332 283.574 205.619 284.26 205.619 285.268C205.619 286.264 205.332 286.955 204.758 287.342C204.184 287.717 203.498 287.904 202.701 287.904C201.893 287.904 201.201 287.717 200.627 287.342C200.064 286.955 199.783 286.264 199.783 285.268C199.783 284.26 200.064 283.574 200.627 283.211C201.201 282.836 201.893 282.648 202.701 282.648ZM224.727 304.164C224.727 305.5 224.41 306.631 223.777 307.557C223.156 308.471 222.225 309.168 220.982 309.648C219.74 310.117 218.193 310.352 216.342 310.352C214.971 310.352 213.793 310.264 212.809 310.088C211.836 309.912 210.852 309.619 209.855 309.209V304.779C210.922 305.26 212.064 305.658 213.283 305.975C214.514 306.279 215.592 306.432 216.518 306.432C217.561 306.432 218.305 306.279 218.75 305.975C219.207 305.658 219.436 305.248 219.436 304.744C219.436 304.416 219.342 304.123 219.154 303.865C218.979 303.596 218.592 303.297 217.994 302.969C217.396 302.629 216.459 302.189 215.182 301.65C213.951 301.135 212.938 300.613 212.141 300.086C211.355 299.559 210.77 298.938 210.383 298.223C210.008 297.496 209.82 296.576 209.82 295.463C209.82 293.646 210.523 292.281 211.93 291.367C213.348 290.441 215.24 289.979 217.607 289.979C218.826 289.979 219.986 290.102 221.088 290.348C222.201 290.594 223.344 290.986 224.516 291.525L222.898 295.393C221.926 294.971 221.006 294.625 220.139 294.355C219.283 294.086 218.41 293.951 217.52 293.951C216.734 293.951 216.143 294.057 215.744 294.268C215.346 294.479 215.146 294.801 215.146 295.234C215.146 295.551 215.246 295.832 215.445 296.078C215.656 296.324 216.055 296.6 216.641 296.904C217.238 297.197 218.111 297.578 219.26 298.047C220.373 298.504 221.34 298.984 222.16 299.488C222.98 299.98 223.613 300.596 224.059 301.334C224.504 302.061 224.727 303.004 224.727 304.164ZM237.014 289.979C238.83 289.979 240.395 290.33 241.707 291.033C243.02 291.725 244.033 292.732 244.748 294.057C245.463 295.381 245.82 296.998 245.82 298.908V301.51H233.146C233.205 303.021 233.656 304.211 234.5 305.078C235.355 305.934 236.539 306.361 238.051 306.361C239.305 306.361 240.453 306.232 241.496 305.975C242.539 305.717 243.611 305.33 244.713 304.814V308.963C243.74 309.443 242.721 309.795 241.654 310.018C240.6 310.24 239.316 310.352 237.805 310.352C235.836 310.352 234.09 309.988 232.566 309.262C231.055 308.535 229.865 307.428 228.998 305.939C228.143 304.451 227.715 302.576 227.715 300.314C227.715 298.018 228.102 296.107 228.875 294.584C229.66 293.049 230.75 291.9 232.145 291.139C233.539 290.365 235.162 289.979 237.014 289.979ZM237.049 293.793C236.006 293.793 235.139 294.127 234.447 294.795C233.768 295.463 233.375 296.512 233.27 297.941H240.793C240.781 297.145 240.635 296.436 240.354 295.814C240.084 295.193 239.674 294.701 239.123 294.338C238.584 293.975 237.893 293.793 237.049 293.793Z" fill="#008080"/>
<path d="M201 217C201 232.464 188.016 245 172 245C155.984 245 143 232.464 143 217C143 201.536 155.984 189 172 189C188.016 189 201 201.536 201 217ZM148.404 217C148.404 229.582 158.968 239.782 172 239.782C185.032 239.782 195.596 229.582 195.596 217C195.596 204.418 185.032 194.218 172 194.218C158.968 194.218 148.404 204.418 148.404 217Z" fill="#FBE25D"/>
<path d="M201 297C201 312.464 188.016 325 172 325C155.984 325 143 312.464 143 297C143 281.536 155.984 269 172 269C188.016 269 201 281.536 201 297ZM148.404 297C148.404 309.582 158.968 319.782 172 319.782C185.032 319.782 195.596 309.582 195.596 297C195.596 284.418 185.032 274.218 172 274.218C158.968 274.218 148.404 284.418 148.404 297Z" fill="#FBE25D"/>
<path d="M341 15.8571H332V13.1429H341V5H344V13.1429H353V15.8571H344V24H341V15.8571Z" fill="#2C3E50"/>
<ellipse cx="94" cy="93" rx="21" ry="20" fill="#008080"/>
<path d="M86.2222 100H87.8056L98.6667 90.225L97.0833 88.8L86.2222 98.575V100ZM84 102V97.75L98.6667 84.575C98.8889 84.3917 99.1343 84.25 99.4028 84.15C99.6713 84.05 99.9537 84 100.25 84C100.546 84 100.833 84.05 101.111 84.15C101.389 84.25 101.63 84.4 101.833 84.6L103.361 86C103.583 86.1833 103.745 86.4 103.847 86.65C103.949 86.9 104 87.15 104 87.4C104 87.6667 103.949 87.9208 103.847 88.1625C103.745 88.4042 103.583 88.625 103.361 88.825L88.7222 102H84ZM97.8611 89.525L97.0833 88.8L98.6667 90.225L97.8611 89.525Z" fill="#E8EAED"/>
<path d="M144.444 24L137.444 17.7C136.889 18.1 136.25 18.4167 135.528 18.65C134.806 18.8833 134.037 19 133.222 19C131.204 19 129.495 18.3708 128.097 17.1125C126.699 15.8542 126 14.3167 126 12.5C126 10.6833 126.699 9.14583 128.097 7.8875C129.495 6.62917 131.204 6 133.222 6C135.241 6 136.949 6.62917 138.347 7.8875C139.745 9.14583 140.444 10.6833 140.444 12.5C140.444 13.2333 140.315 13.925 140.056 14.575C139.796 15.225 139.444 15.8 139 16.3L146 22.6L144.444 24ZM133.222 17C134.611 17 135.792 16.5625 136.764 15.6875C137.736 14.8125 138.222 13.75 138.222 12.5C138.222 11.25 137.736 10.1875 136.764 9.3125C135.792 8.4375 134.611 8 133.222 8C131.833 8 130.653 8.4375 129.681 9.3125C128.708 10.1875 128.222 11.25 128.222 12.5C128.222 13.75 128.708 14.8125 129.681 15.6875C130.653 16.5625 131.833 17 133.222 17Z" fill="#2C3E50"/>
<path d="M53 23.9875C51.4798 23.9875 50.0514 23.7253 48.7146 23.2009C47.3775 22.6764 46.2147 21.9647 45.2259 21.0658C44.2371 20.1669 43.4543 19.1098 42.8775 17.8946C42.3009 16.6797 42.0125 15.3815 42.0125 14C42.0125 12.6185 42.3009 11.3203 42.8775 10.1054C43.4543 8.89016 44.2371 7.83315 45.2259 6.93425C46.2147 6.03535 47.3775 5.32362 48.7146 4.79914C50.0514 4.27474 51.4798 4.0125 53 4.0125C54.5202 4.0125 55.9486 4.27474 57.2854 4.79914C58.6225 5.32362 59.7853 6.03535 60.7741 6.93425C61.7629 7.83315 62.5457 8.89016 63.1225 10.1054C63.6991 11.3203 63.9875 12.6185 63.9875 14C63.9875 15.3815 63.6991 16.6797 63.1225 17.8946C62.5457 19.1098 61.7629 20.1669 60.7741 21.0658C59.7853 21.9647 58.6225 22.6764 57.2854 23.2009C55.9486 23.7253 54.5202 23.9875 53 23.9875ZM53 22.0125C55.4596 22.0125 57.5434 21.2365 59.2509 19.6842C60.9584 18.132 61.8125 16.237 61.8125 14C61.8125 11.763 60.9584 9.86803 59.2509 8.31575C57.5434 6.76351 55.4596 5.9875 53 5.9875C50.5404 5.9875 48.4566 6.76351 46.7491 8.31575C45.0416 9.86803 44.1875 11.763 44.1875 14C44.1875 16.237 45.0416 18.132 46.7491 19.6842C48.4566 21.2365 50.5404 22.0125 53 22.0125ZM53 19.9875C51.1696 19.9875 49.6143 19.4052 48.3334 18.2408C47.0526 17.0763 46.4125 15.663 46.4125 14C46.4125 12.337 47.0526 10.9237 48.3334 9.75925C49.6143 8.5948 51.1696 8.0125 53 8.0125C54.8304 8.0125 56.3857 8.5948 57.6666 9.75925C58.9474 10.9237 59.5875 12.337 59.5875 14C59.5875 15.663 58.9474 17.0763 57.6666 18.2408C56.3857 19.4052 54.8304 19.9875 53 19.9875ZM53 18.0125C54.213 18.0125 55.2518 17.6198 56.1159 16.8342C56.98 16.0487 57.4125 15.1037 57.4125 14C57.4125 12.8963 56.98 11.9513 56.1159 11.1658C55.2518 10.3802 54.213 9.9875 53 9.9875C51.787 9.9875 50.7482 10.3802 49.8841 11.1658C49.02 11.9513 48.5875 12.8963 48.5875 14C48.5875 15.1037 49.02 16.0487 49.8841 16.8342C50.7482 17.6198 51.787 18.0125 53 18.0125ZM53 15.9875C52.398 15.9875 51.8831 15.7927 51.4547 15.4033C51.0263 15.0138 50.8125 14.5463 50.8125 14C50.8125 13.4537 51.0263 12.9862 51.4547 12.5967C51.8831 12.2073 52.398 12.0125 53 12.0125C53.602 12.0125 54.1169 12.2073 54.5453 12.5967C54.9737 12.9862 55.1875 13.4537 55.1875 14C55.1875 14.5463 54.9737 15.0138 54.5453 15.4033C54.1169 15.7927 53.602 15.9875 53 15.9875Z" fill="#2C3E50" stroke="#2C3E50" stroke-width="0.025"/>
<path d="M2.16078 10.5333L2.16085 10.5333L10.845 4.79086C10.8451 4.7908 10.8452 4.79074 10.8453 4.79068C10.9282 4.73623 11.0724 4.73671 11.1539 4.79051L19.8398 10.5333L19.8398 10.5333C20.7629 11.1436 21.25 12.036 21.25 12.9287V22.7179C21.25 22.8941 21.0305 23.25 20.4722 23.25H14.9722C14.4139 23.25 14.1944 22.8941 14.1944 22.7179V18.1026C14.1944 17.0039 13.1831 16.3269 12.2222 16.3269H9.77778C8.81687 16.3269 7.80556 17.0039 7.80556 18.1026V22.7179C7.80556 22.8941 7.58609 23.25 7.02778 23.25H1.52778C0.969464 23.25 0.75 22.8941 0.75 22.7179V12.9297C0.75 12.0366 1.23767 11.1436 2.16078 10.5333Z" stroke="#2C3E50" stroke-width="1.5"/>
<ellipse cx="22" cy="93" rx="21" ry="20" fill="#008080"/>
<path d="M20.2632 103C19.6263 103 19.0811 102.804 18.6276 102.413C18.1741 102.021 17.9474 101.55 17.9474 101H22.5789C22.5789 101.55 22.3522 102.021 21.8987 102.413C21.4452 102.804 20.9 103 20.2632 103ZM27.2105 94V91H23.7368V89H27.2105V86H29.5263V89H33V91H29.5263V94H27.2105ZM11 100V98H13.3158V91C13.3158 89.6167 13.7982 88.3875 14.7632 87.3125C15.7281 86.2375 16.9825 85.5333 18.5263 85.2V84.5C18.5263 84.0833 18.6952 83.7292 19.0329 83.4375C19.3706 83.1458 19.7807 83 20.2632 83C20.7456 83 21.1557 83.1458 21.4934 83.4375C21.8311 83.7292 22 84.0833 22 84.5V85.2C22.2702 85.2667 22.5355 85.3375 22.7961 85.4125C23.0566 85.4875 23.3026 85.5833 23.5342 85.7C23.2447 85.9333 22.9842 86.1875 22.7526 86.4625C22.5211 86.7375 22.3184 87.0333 22.1447 87.35C21.8553 87.2333 21.5513 87.1458 21.2329 87.0875C20.9145 87.0292 20.5912 87 20.2632 87C18.9895 87 17.8991 87.3917 16.9921 88.175C16.0851 88.9583 15.6316 89.9 15.6316 91V98H24.8947V95.2C25.2421 95.3833 25.6088 95.5333 25.9947 95.65C26.3807 95.7667 26.786 95.8583 27.2105 95.925V98H29.5263V100H11Z" fill="#F1E9E6"/>
<path d="M174.889 24V18H177.111V20H186V22H177.111V24H174.889ZM166 22V20H172.667V22H166ZM170.444 18V16H166V14H170.444V12H172.667V18H170.444ZM174.889 16V14H186V16H174.889ZM179.333 12V6H181.556V8H186V10H181.556V12H179.333ZM166 10V8H177.111V10H166Z" fill="#2C3E50"/>
<path d="M90.5039 8.81195L90.5038 8.80833C90.4932 6.60056 92.5108 4.75 95.013 4.75C97.5033 4.75 99.5092 6.56925 99.5092 8.78982C99.5092 11.097 97.494 12.9624 95.013 12.9624C92.5155 12.9624 90.5038 11.0938 90.5039 8.81195ZM103.11 23.25H86.8899C85.8483 23.25 85.2937 23.11 85.0181 22.9488C84.8969 22.8779 84.8427 22.8105 84.8125 22.7533C84.7797 22.6913 84.75 22.593 84.75 22.4292C84.75 21.3558 85.5918 19.8642 87.4013 18.5982C89.1749 17.3573 91.7729 16.4204 95 16.4204C98.2339 16.4204 100.832 17.3574 102.603 18.598C104.411 19.8635 105.25 21.355 105.25 22.4292C105.25 22.593 105.22 22.6913 105.188 22.7533C105.157 22.8105 105.103 22.8779 104.982 22.9488C104.706 23.11 104.152 23.25 103.11 23.25Z" stroke="#2C3E50" stroke-width="1.5"/>
<path d="M208.333 24C207.692 24 207.142 23.8042 206.685 23.4125C206.228 23.0208 206 22.55 206 22V8C206 7.45 206.228 6.97917 206.685 6.5875C207.142 6.19583 207.692 6 208.333 6H209.5V4H211.833V6H221.167V4H223.5V6H224.667C225.308 6 225.858 6.19583 226.315 6.5875C226.772 6.97917 227 7.45 227 8V22C227 22.55 226.772 23.0208 226.315 23.4125C225.858 23.8042 225.308 24 224.667 24H208.333ZM208.333 22H224.667V12H208.333V22ZM208.333 10H224.667V8H208.333V10ZM216.5 16C216.169 16 215.892 15.9042 215.669 15.7125C215.445 15.5208 215.333 15.2833 215.333 15C215.333 14.7167 215.445 14.4792 215.669 14.2875C215.892 14.0958 216.169 14 216.5 14C216.831 14 217.108 14.0958 217.331 14.2875C217.555 14.4792 217.667 14.7167 217.667 15C217.667 15.2833 217.555 15.5208 217.331 15.7125C217.108 15.9042 216.831 16 216.5 16ZM211.833 16C211.503 16 211.226 15.9042 211.002 15.7125C210.778 15.5208 210.667 15.2833 210.667 15C210.667 14.7167 210.778 14.4792 211.002 14.2875C211.226 14.0958 211.503 14 211.833 14C212.164 14 212.441 14.0958 212.665 14.2875C212.888 14.4792 213 14.7167 213 15C213 15.2833 212.888 15.5208 212.665 15.7125C212.441 15.9042 212.164 16 211.833 16ZM221.167 16C220.836 16 220.559 15.9042 220.335 15.7125C220.112 15.5208 220 15.2833 220 15C220 14.7167 220.112 14.4792 220.335 14.2875C220.559 14.0958 220.836 14 221.167 14C221.497 14 221.774 14.0958 221.998 14.2875C222.222 14.4792 222.333 14.7167 222.333 15C222.333 15.2833 222.222 15.5208 221.998 15.7125C221.774 15.9042 221.497 16 221.167 16ZM216.5 20C216.169 20 215.892 19.9042 215.669 19.7125C215.445 19.5208 215.333 19.2833 215.333 19C215.333 18.7167 215.445 18.4792 215.669 18.2875C215.892 18.0958 216.169 18 216.5 18C216.831 18 217.108 18.0958 217.331 18.2875C217.555 18.4792 217.667 18.7167 217.667 19C217.667 19.2833 217.555 19.5208 217.331 19.7125C217.108 19.9042 216.831 20 216.5 20ZM211.833 20C211.503 20 211.226 19.9042 211.002 19.7125C210.778 19.5208 210.667 19.2833 210.667 19C210.667 18.7167 210.778 18.4792 211.002 18.2875C211.226 18.0958 211.503 18 211.833 18C212.164 18 212.441 18.0958 212.665 18.2875C212.888 18.4792 213 18.7167 213 19C213 19.2833 212.888 19.5208 212.665 19.7125C212.441 19.9042 212.164 20 211.833 20ZM221.167 20C220.836 20 220.559 19.9042 220.335 19.7125C220.112 19.5208 220 19.2833 220 19C220 18.7167 220.112 18.4792 220.335 18.2875C220.559 18.0958 220.836 18 221.167 18C221.497 18 221.774 18.0958 221.998 18.2875C222.222 18.4792 222.333 18.7167 222.333 19C222.333 19.2833 222.222 19.5208 221.998 19.7125C221.774 19.9042 221.497 20 221.167 20Z" fill="#2C3E50"/>
<path d="M259.739 24L247 14L259.739 4L262 5.775L251.522 14L262 22.225L259.739 24Z" fill="#222222"/>
<rect x="283" y="1" width="28" height="26" stroke="#2C3E50" stroke-width="2"/>
<path d="M293.335 17.6912L293.344 17.6988L293.352 17.6912L305.164 7.01685L306.981 8.65904L293.344 20.9832L286.019 14.3638L287.836 12.7216L293.335 17.6912Z" fill="#2C3E50" stroke="#2C3E50" stroke-width="0.025"/>
<path d="M244 113C240.265 113 236.755 112.317 233.47 110.952C230.185 109.587 227.328 107.735 224.898 105.395C222.468 103.055 220.544 100.303 219.126 97.14C217.709 93.9767 217 90.5967 217 87C217 83.4033 217.709 80.0233 219.126 76.86C220.544 73.6967 222.468 70.945 224.898 68.605C227.328 66.265 230.185 64.4125 233.47 63.0475C236.755 61.6825 240.265 61 244 61C247.735 61 251.245 61.6825 254.53 63.0475C257.815 64.4125 260.673 66.265 263.103 68.605C265.533 70.945 267.456 73.6967 268.874 76.86C270.291 80.0233 271 83.4033 271 87C271 90.5967 270.291 93.9767 268.874 97.14C267.456 100.303 265.533 103.055 263.103 105.395C260.673 107.735 257.815 109.587 254.53 110.952C251.245 112.317 247.735 113 244 113ZM244 107.8C250.03 107.8 255.138 105.785 259.323 101.755C263.508 97.725 265.6 92.8067 265.6 87C265.6 81.1933 263.508 76.275 259.323 72.245C255.138 68.215 250.03 66.2 244 66.2C237.97 66.2 232.863 68.215 228.678 72.245C224.493 76.275 222.4 81.1933 222.4 87C222.4 92.8067 224.493 97.725 228.678 101.755C232.863 105.785 237.97 107.8 244 107.8ZM244 102.6C239.5 102.6 235.675 101.083 232.525 98.05C229.375 95.0167 227.8 91.3333 227.8 87C227.8 82.6667 229.375 78.9833 232.525 75.95C235.675 72.9167 239.5 71.4 244 71.4C248.5 71.4 252.325 72.9167 255.475 75.95C258.625 78.9833 260.2 82.6667 260.2 87C260.2 91.3333 258.625 95.0167 255.475 98.05C252.325 101.083 248.5 102.6 244 102.6ZM244 97.4C246.97 97.4 249.513 96.3817 251.628 94.345C253.743 92.3083 254.8 89.86 254.8 87C254.8 84.14 253.743 81.6917 251.628 79.655C249.513 77.6183 246.97 76.6 244 76.6C241.03 76.6 238.488 77.6183 236.373 79.655C234.258 81.6917 233.2 84.14 233.2 87C233.2 89.86 234.258 92.3083 236.373 94.345C238.488 96.3817 241.03 97.4 244 97.4ZM244 92.2C242.515 92.2 241.244 91.6908 240.186 90.6725C239.129 89.6542 238.6 88.43 238.6 87C238.6 85.57 239.129 84.3458 240.186 83.3275C241.244 82.3092 242.515 81.8 244 81.8C245.485 81.8 246.756 82.3092 247.814 83.3275C248.871 84.3458 249.4 85.57 249.4 87C249.4 88.43 248.871 89.6542 247.814 90.6725C246.756 91.6908 245.485 92.2 244 92.2Z" fill="#008080"/>
<path d="M243.037 72L228 57.3056L231.759 53.632L243.037 64.6528L267.241 41L271 44.6736L243.037 72Z" fill="#E74C3C"/>
<ellipse cx="166" cy="93" rx="21" ry="20" fill="#008080"/>
<path d="M162.99 103L162.552 99.8C162.315 99.7167 162.092 99.6167 161.882 99.5C161.672 99.3833 161.467 99.2583 161.266 99.125L158.01 100.375L155 95.625L157.818 93.675C157.8 93.5583 157.791 93.4458 157.791 93.3375V92.6625C157.791 92.5542 157.8 92.4417 157.818 92.325L155 90.375L158.01 85.625L161.266 86.875C161.467 86.7417 161.677 86.6167 161.896 86.5C162.114 86.3833 162.333 86.2833 162.552 86.2L162.99 83H169.01L169.448 86.2C169.685 86.2833 169.908 86.3833 170.118 86.5C170.328 86.6167 170.533 86.7417 170.734 86.875L173.99 85.625L177 90.375L174.182 92.325C174.2 92.4417 174.209 92.5542 174.209 92.6625V93.3375C174.209 93.4458 174.191 93.5583 174.154 93.675L176.973 95.625L173.963 100.375L170.734 99.125C170.533 99.2583 170.323 99.3833 170.104 99.5C169.886 99.6167 169.667 99.7167 169.448 99.8L169.01 103H162.99ZM164.905 101H167.067L167.45 98.35C168.016 98.2167 168.54 98.0208 169.024 97.7625C169.507 97.5042 169.949 97.1917 170.351 96.825L173.06 97.85L174.127 96.15L171.774 94.525C171.865 94.2917 171.929 94.0458 171.965 93.7875C172.002 93.5292 172.02 93.2667 172.02 93C172.02 92.7333 172.002 92.4708 171.965 92.2125C171.929 91.9542 171.865 91.7083 171.774 91.475L174.127 89.85L173.06 88.15L170.351 89.2C169.949 88.8167 169.507 88.4958 169.024 88.2375C168.54 87.9792 168.016 87.7833 167.45 87.65L167.095 85H164.933L164.55 87.65C163.984 87.7833 163.46 87.9792 162.976 88.2375C162.493 88.4958 162.051 88.8083 161.649 89.175L158.94 88.15L157.873 89.85L160.226 91.45C160.135 91.7 160.071 91.95 160.035 92.2C159.998 92.45 159.98 92.7167 159.98 93C159.98 93.2667 159.998 93.525 160.035 93.775C160.071 94.025 160.135 94.275 160.226 94.525L157.873 96.15L158.94 97.85L161.649 96.8C162.051 97.1833 162.493 97.5042 162.976 97.7625C163.46 98.0208 163.984 98.2167 164.55 98.35L164.905 101ZM166.055 96.5C167.113 96.5 168.016 96.1583 168.764 95.475C169.512 94.7917 169.886 93.9667 169.886 93C169.886 92.0333 169.512 91.2083 168.764 90.525C168.016 89.8417 167.113 89.5 166.055 89.5C164.978 89.5 164.071 89.8417 163.332 90.525C162.593 91.2083 162.224 92.0333 162.224 93C162.224 93.9667 162.593 94.7917 163.332 95.475C164.071 96.1583 164.978 96.5 166.055 96.5Z" fill="#E8EAED"/>
</svg>
