<svg width="280" height="80" viewBox="0 0 280 80" fill="none" xmlns="http://www.w3.org/2000/svg">
<rect width="280" height="80" fill="#2C3E50"/>
<path d="M42.4434 27.3008C45.7598 27.3008 48.1797 28.0156 49.7031 29.4453C51.2266 30.8633 51.9883 32.8203 51.9883 35.3164C51.9883 36.4414 51.8184 37.5195 51.4785 38.5508C51.1387 39.5703 50.582 40.4785 49.8086 41.2754C49.0469 42.0723 48.0273 42.7051 46.75 43.1738C45.4727 43.6309 43.8965 43.8594 42.0215 43.8594H39.6836V53H34.2344V27.3008H42.4434ZM42.1621 31.7656H39.6836V39.3945H41.4766C42.4961 39.3945 43.3809 39.2598 44.1309 38.9902C44.8809 38.7207 45.4609 38.2988 45.8711 37.7246C46.2812 37.1504 46.4863 36.4121 46.4863 35.5098C46.4863 34.2441 46.1348 33.3066 45.4316 32.6973C44.7285 32.0762 43.6387 31.7656 42.1621 31.7656ZM64.5215 32.9785C66.3379 32.9785 67.9023 33.3301 69.2148 34.0332C70.5273 34.7246 71.541 35.7324 72.2559 37.0566C72.9707 38.3809 73.3281 39.998 73.3281 41.9082V44.5098H60.6543C60.7129 46.0215 61.1641 47.2109 62.0078 48.0781C62.8633 48.9336 64.0469 49.3613 65.5586 49.3613C66.8125 49.3613 67.9609 49.2324 69.0039 48.9746C70.0469 48.7168 71.1191 48.3301 72.2207 47.8145V51.9629C71.248 52.4434 70.2285 52.7949 69.1621 53.0176C68.1074 53.2402 66.8242 53.3516 65.3125 53.3516C63.3438 53.3516 61.5977 52.9883 60.0742 52.2617C58.5625 51.5352 57.373 50.4277 56.5059 48.9395C55.6504 47.4512 55.2227 45.5762 55.2227 43.3145C55.2227 41.0176 55.6094 39.1074 56.3828 37.584C57.168 36.0488 58.2578 34.9004 59.6523 34.1387C61.0469 33.3652 62.6699 32.9785 64.5215 32.9785ZM64.5566 36.793C63.5137 36.793 62.6465 37.127 61.9551 37.7949C61.2754 38.4629 60.8828 39.5117 60.7773 40.9414H68.3008C68.2891 40.1445 68.1426 39.4355 67.8613 38.8145C67.5918 38.1934 67.1816 37.7012 66.6309 37.3379C66.0918 36.9746 65.4004 36.793 64.5566 36.793ZM88.8496 32.9785C90.9473 32.9785 92.6348 33.5527 93.9121 34.7012C95.1895 35.8379 95.8281 37.666 95.8281 40.1855V53H90.4668V41.5215C90.4668 40.1152 90.209 39.0547 89.6934 38.3398C89.1895 37.625 88.3926 37.2676 87.3027 37.2676C85.6621 37.2676 84.543 37.8242 83.9453 38.9375C83.3477 40.0508 83.0488 41.6562 83.0488 43.7539V53H77.6875V33.3477H81.7832L82.5039 35.8613H82.8027C83.2246 35.1816 83.7461 34.6309 84.3672 34.209C85 33.7871 85.6973 33.4766 86.459 33.2773C87.2324 33.0781 88.0293 32.9785 88.8496 32.9785ZM112.51 32.9785C114.607 32.9785 116.295 33.5527 117.572 34.7012C118.85 35.8379 119.488 37.666 119.488 40.1855V53H114.127V41.5215C114.127 40.1152 113.869 39.0547 113.354 38.3398C112.85 37.625 112.053 37.2676 110.963 37.2676C109.322 37.2676 108.203 37.8242 107.605 38.9375C107.008 40.0508 106.709 41.6562 106.709 43.7539V53H101.348V33.3477H105.443L106.164 35.8613H106.463C106.885 35.1816 107.406 34.6309 108.027 34.209C108.66 33.7871 109.357 33.4766 110.119 33.2773C110.893 33.0781 111.689 32.9785 112.51 32.9785ZM122.195 33.3477H128.066L131.775 44.4043C131.893 44.7559 131.992 45.1133 132.074 45.4766C132.156 45.8398 132.227 46.2148 132.285 46.6016C132.344 46.9883 132.391 47.3926 132.426 47.8145H132.531C132.602 47.1816 132.695 46.5898 132.812 46.0391C132.941 45.4883 133.1 44.9434 133.287 44.4043L136.926 33.3477H142.674L134.359 55.5137C133.855 56.873 133.199 58.0039 132.391 58.9062C131.582 59.8203 130.65 60.5059 129.596 60.9629C128.553 61.4199 127.404 61.6484 126.15 61.6484C125.541 61.6484 125.014 61.6133 124.568 61.543C124.123 61.4844 123.742 61.4199 123.426 61.3496V57.0957C123.672 57.1543 123.982 57.207 124.357 57.2539C124.732 57.3008 125.125 57.3242 125.535 57.3242C126.285 57.3242 126.93 57.166 127.469 56.8496C128.008 56.5332 128.459 56.1055 128.822 55.5664C129.186 55.0391 129.473 54.459 129.684 53.8262L130 52.8594L122.195 33.3477ZM186.848 27.3008L180.309 53H174.104L170.623 39.5C170.553 39.2422 170.459 38.8496 170.342 38.3223C170.225 37.7949 170.102 37.2207 169.973 36.5996C169.844 35.9668 169.727 35.375 169.621 34.8242C169.527 34.2617 169.463 33.8164 169.428 33.4883C169.393 33.8164 169.322 34.2559 169.217 34.8066C169.123 35.3574 169.012 35.9434 168.883 36.5645C168.766 37.1855 168.648 37.7656 168.531 38.3047C168.414 38.8438 168.32 39.2539 168.25 39.5352L164.787 53H158.6L152.043 27.3008H157.404L160.691 41.3281C160.785 41.75 160.891 42.2539 161.008 42.8398C161.137 43.4258 161.26 44.041 161.377 44.6855C161.506 45.3184 161.617 45.9336 161.711 46.5312C161.816 47.1172 161.893 47.627 161.939 48.0605C161.998 47.6152 162.074 47.0996 162.168 46.5137C162.262 45.916 162.361 45.3125 162.467 44.7031C162.584 44.082 162.701 43.5078 162.818 42.9805C162.936 42.4531 163.041 42.0254 163.135 41.6973L166.879 27.3008H172.029L175.773 41.6973C175.855 42.0137 175.949 42.4414 176.055 42.9805C176.172 43.5078 176.289 44.082 176.406 44.7031C176.523 45.3242 176.629 45.9336 176.723 46.5312C176.828 47.1172 176.904 47.627 176.951 48.0605C177.033 47.4746 177.145 46.7656 177.285 45.9336C177.438 45.0898 177.596 44.252 177.76 43.4199C177.936 42.5879 178.088 41.8906 178.217 41.3281L181.486 27.3008H186.848ZM204.373 33.3477V53H199.012V33.3477H204.373ZM201.701 25.6484C202.498 25.6484 203.184 25.8359 203.758 26.2109C204.332 26.5742 204.619 27.2598 204.619 28.2676C204.619 29.2637 204.332 29.9551 203.758 30.3418C203.184 30.7168 202.498 30.9043 201.701 30.9043C200.893 30.9043 200.201 30.7168 199.627 30.3418C199.064 29.9551 198.783 29.2637 198.783 28.2676C198.783 27.2598 199.064 26.5742 199.627 26.2109C200.201 25.8359 200.893 25.6484 201.701 25.6484ZM223.727 47.1641C223.727 48.5 223.41 49.6309 222.777 50.5566C222.156 51.4707 221.225 52.168 219.982 52.6484C218.74 53.1172 217.193 53.3516 215.342 53.3516C213.971 53.3516 212.793 53.2637 211.809 53.0879C210.836 52.9121 209.852 52.6191 208.855 52.209V47.7793C209.922 48.2598 211.064 48.6582 212.283 48.9746C213.514 49.2793 214.592 49.4316 215.518 49.4316C216.561 49.4316 217.305 49.2793 217.75 48.9746C218.207 48.6582 218.436 48.248 218.436 47.7441C218.436 47.416 218.342 47.123 218.154 46.8652C217.979 46.5957 217.592 46.2969 216.994 45.9688C216.396 45.6289 215.459 45.1895 214.182 44.6504C212.951 44.1348 211.938 43.6133 211.141 43.0859C210.355 42.5586 209.77 41.9375 209.383 41.2227C209.008 40.4961 208.82 39.5762 208.82 38.4629C208.82 36.6465 209.523 35.2812 210.93 34.3672C212.348 33.4414 214.24 32.9785 216.607 32.9785C217.826 32.9785 218.986 33.1016 220.088 33.3477C221.201 33.5938 222.344 33.9863 223.516 34.5254L221.898 38.3926C220.926 37.9707 220.006 37.625 219.139 37.3555C218.283 37.0859 217.41 36.9512 216.52 36.9512C215.734 36.9512 215.143 37.0566 214.744 37.2676C214.346 37.4785 214.146 37.8008 214.146 38.2344C214.146 38.5508 214.246 38.832 214.445 39.0781C214.656 39.3242 215.055 39.5996 215.641 39.9043C216.238 40.1973 217.111 40.5781 218.26 41.0469C219.373 41.5039 220.34 41.9844 221.16 42.4883C221.98 42.9805 222.613 43.5957 223.059 44.334C223.504 45.0605 223.727 46.0039 223.727 47.1641ZM236.014 32.9785C237.83 32.9785 239.395 33.3301 240.707 34.0332C242.02 34.7246 243.033 35.7324 243.748 37.0566C244.463 38.3809 244.82 39.998 244.82 41.9082V44.5098H232.146C232.205 46.0215 232.656 47.2109 233.5 48.0781C234.355 48.9336 235.539 49.3613 237.051 49.3613C238.305 49.3613 239.453 49.2324 240.496 48.9746C241.539 48.7168 242.611 48.3301 243.713 47.8145V51.9629C242.74 52.4434 241.721 52.7949 240.654 53.0176C239.6 53.2402 238.316 53.3516 236.805 53.3516C234.836 53.3516 233.09 52.9883 231.566 52.2617C230.055 51.5352 228.865 50.4277 227.998 48.9395C227.143 47.4512 226.715 45.5762 226.715 43.3145C226.715 41.0176 227.102 39.1074 227.875 37.584C228.66 36.0488 229.75 34.9004 231.145 34.1387C232.539 33.3652 234.162 32.9785 236.014 32.9785ZM236.049 36.793C235.006 36.793 234.139 37.127 233.447 37.7949C232.768 38.4629 232.375 39.5117 232.27 40.9414H239.793C239.781 40.1445 239.635 39.4355 239.354 38.8145C239.084 38.1934 238.674 37.7012 238.123 37.3379C237.584 36.9746 236.893 36.793 236.049 36.793Z" fill="#F1E9E6"/>
<path d="M198 40C198 55.464 185.464 68 170 68C154.536 68 142 55.464 142 40C142 24.536 154.536 12 170 12C185.464 12 198 24.536 198 40ZM147.218 40C147.218 52.5822 157.418 62.7822 170 62.7822C182.582 62.7822 192.782 52.5822 192.782 40C192.782 27.4178 182.582 17.2178 170 17.2178C157.418 17.2178 147.218 27.4178 147.218 40Z" fill="#FBE25D"/>
</svg>
