<svg width="161" height="75" viewBox="0 0 161 75" fill="none" xmlns="http://www.w3.org/2000/svg">
<path d="M0 8H161V68H0V8Z" fill="#FEFCFC"/>
<path d="M31.256 48L35.16 26.976C37.272 26.7413 39.864 26.624 42.936 26.624C46.0293 26.624 48.2907 27.072 49.72 27.968C51.1493 28.864 51.864 30.2187 51.864 32.032C51.864 33.824 51.3947 35.2853 50.456 36.416C49.5387 37.5467 48.28 38.2933 46.68 38.656C47.0427 40.4267 47.64 42.0267 48.472 43.456C49.24 44.8 50.072 45.6853 50.968 46.112C50.648 47.008 50.1573 47.648 49.496 48.032C48.856 48.4373 48.0667 48.64 47.128 48.64C46.2107 48.64 45.3893 48.3733 44.664 47.84C43.9387 47.2853 43.288 46.5067 42.712 45.504C41.496 43.328 40.824 40.5227 40.696 37.088H40.92C42.4987 37.0453 43.6827 36.6187 44.472 35.808C45.2613 34.976 45.656 33.696 45.656 31.968C45.656 29.8133 44.7493 28.6933 42.936 28.608H42.232C42.04 28.608 41.8907 28.6187 41.784 28.64L38.104 48H31.256ZM60.3013 48.64C55.6079 48.64 53.2613 46.432 53.2613 42.016C53.2613 38.88 54.1253 36.2987 55.8533 34.272C57.6879 32.1173 60.1946 31.04 63.3733 31.04C65.6773 31.04 67.4159 31.5733 68.5893 32.64C69.7626 33.7067 70.3493 35.36 70.3493 37.6C70.3493 41.0133 69.4319 43.712 67.5973 45.696C65.8053 47.6587 63.3733 48.64 60.3013 48.64ZM61.1333 34.72C60.8773 35.296 60.6426 36.0213 60.4293 36.896C60.2373 37.7493 60.0133 38.8587 59.7573 40.224C59.5013 41.5893 59.3733 43.1147 59.3733 44.8C59.3733 45.3547 59.4586 45.8133 59.6293 46.176C59.8213 46.5387 60.1626 46.72 60.6533 46.72C61.1439 46.72 61.5386 46.6027 61.8373 46.368C62.1573 46.1333 62.4346 45.7387 62.6693 45.184C63.0959 44.2027 63.4799 42.8053 63.8213 40.992C64.1626 39.1573 64.3439 37.8453 64.3653 37.056C64.4079 36.2667 64.4293 35.584 64.4293 35.008C64.4293 34.4107 64.3439 33.92 64.1733 33.536C64.0026 33.152 63.6719 32.96 63.1813 32.96C62.7119 32.96 62.3173 33.1093 61.9973 33.408C61.6773 33.7067 61.3893 34.144 61.1333 34.72ZM79.2075 48.64C74.5142 48.64 72.1675 46.432 72.1675 42.016C72.1675 38.88 73.0315 36.2987 74.7595 34.272C76.5942 32.1173 79.1008 31.04 82.2795 31.04C84.5835 31.04 86.3222 31.5733 87.4955 32.64C88.6688 33.7067 89.2555 35.36 89.2555 37.6C89.2555 41.0133 88.3382 43.712 86.5035 45.696C84.7115 47.6587 82.2795 48.64 79.2075 48.64ZM80.0395 34.72C79.7835 35.296 79.5488 36.0213 79.3355 36.896C79.1435 37.7493 78.9195 38.8587 78.6635 40.224C78.4075 41.5893 78.2795 43.1147 78.2795 44.8C78.2795 45.3547 78.3648 45.8133 78.5355 46.176C78.7275 46.5387 79.0688 46.72 79.5595 46.72C80.0502 46.72 80.4448 46.6027 80.7435 46.368C81.0635 46.1333 81.3408 45.7387 81.5755 45.184C82.0022 44.2027 82.3862 42.8053 82.7275 40.992C83.0688 39.1573 83.2502 37.8453 83.2715 37.056C83.3142 36.2667 83.3355 35.584 83.3355 35.008C83.3355 34.4107 83.2502 33.92 83.0795 33.536C82.9088 33.152 82.5782 32.96 82.0875 32.96C81.6182 32.96 81.2235 33.1093 80.9035 33.408C80.5835 33.7067 80.2955 34.144 80.0395 34.72ZM113.126 48.32C112.123 48.1067 111.355 47.9573 110.822 47.872C110.31 47.7653 109.744 47.712 109.126 47.712C108.528 47.712 107.931 47.8187 107.334 48.032C107.014 47.84 106.747 47.552 106.534 47.168C106.341 46.784 106.245 46.2933 106.245 45.696C106.245 44.4373 106.886 43.328 108.166 42.368L116.294 36.512C114.779 36.0853 113.328 35.872 111.942 35.872C110.576 35.872 109.648 36.3413 109.158 37.28C108.432 36.4267 108.07 35.328 108.07 33.984C108.07 33.088 108.39 32.352 109.03 31.776C109.691 31.1787 110.704 30.88 112.07 30.88C112.838 30.88 113.563 30.9333 114.246 31.04C114.95 31.1253 115.611 31.2107 116.23 31.296L117.958 31.552C118.512 31.6373 119.067 31.68 119.622 31.68C120.198 31.68 120.699 31.5627 121.126 31.328C121.68 31.84 121.958 32.448 121.958 33.152C121.958 34.2613 121.275 35.392 119.91 36.544L111.814 42.592C113.478 43.0827 114.736 43.328 115.59 43.328C117.382 43.328 118.662 42.9013 119.43 42.048C120.027 42.7307 120.326 43.6693 120.326 44.864C120.326 46.0373 119.942 46.9653 119.174 47.648C118.406 48.3093 117.328 48.64 115.942 48.64C115.088 48.64 114.15 48.5333 113.126 48.32Z" fill="#222222"/>
<path d="M92.979 32.416C92.2537 31.8613 91.891 30.9973 91.891 29.824C91.891 28.6293 92.275 27.7227 93.043 27.104C93.8323 26.4853 94.899 26.176 96.243 26.176C97.0963 26.176 98.5363 26.3253 100.563 26.624L102.739 26.944C103.464 27.0293 104.2 27.072 104.947 27.072C105.715 27.072 106.355 26.912 106.867 26.592C107.635 27.2747 108.019 28.1067 108.019 29.088C108.019 30.0693 107.582 30.912 106.707 31.616C105.811 32.3627 104.787 32.736 103.635 32.736C103.08 32.736 102.355 32.6613 101.459 32.512C100.414 35.7973 99.891 38.5813 99.891 40.864C99.891 43.1467 100.467 44.8853 101.619 46.08C101.086 47.04 100.424 47.7013 99.635 48.064C98.8457 48.448 97.8537 48.64 96.659 48.64C95.4857 48.64 94.5257 48.32 93.779 47.68C93.0537 47.0187 92.691 46.016 92.691 44.672C92.691 43.1147 93.1177 41.056 93.971 38.496C94.8243 35.9573 95.891 33.7173 97.171 31.776C96.5523 31.712 95.923 31.68 95.283 31.68C93.9603 31.68 93.1923 31.9253 92.979 32.416Z" fill="#891F11"/>
</svg>
